<svg width="86" height="75" viewBox="0 0 86 75" fill="none" xmlns="http://www.w3.org/2000/svg">
<path d="M35.6782 26.1821L36.2421 30.1812H51.3368L51.9007 26.1821H35.6782Z" fill="#96262C"/>
<path d="M36.8042 34.1812L37.3664 38.1811H50.2259L50.7325 34.1812H36.8042Z" fill="#96262C"/>
<path d="M37.9292 42.1809L38.499 46.1808L49.0617 46.1707L49.6213 42.1809H37.9292Z" fill="#96262C"/>
<path d="M50.2256 38.1811L50.7322 34.1812H50.4422L40.521 38.1811H50.2256Z" fill="#721C20"/>
<path d="M38.499 46.1808L49.0617 46.1707L49.6213 42.1809H37.9292L38.499 46.1808Z" fill="#721C20"/>
<path d="M54.7206 26.1821H68.5578L67.9956 30.1812H58.1594L57.5972 34.1811H67.4342L65.6904 46.1808H51.9004L52.471 42.1809H62.308L62.8702 38.181H53.0332L54.7206 26.1821Z" fill="#96262C"/>
<path d="M53.785 32.834L53.0332 38.181H62.8702L62.308 42.1809H52.471L51.9004 46.1808H65.6904L67.4342 34.1811H57.5972L58.0271 31.123L53.785 32.834Z" fill="#721C20"/>
<path d="M67.9959 30.1813L68.4544 26.9202L60.3638 30.1813H67.9959Z" fill="#721C20"/>
<path d="M85.1431 26.1821L71.3614 26.2091L68.5303 46.1808H82.3312L82.8917 42.1809H73.1137L74.8011 30.2082L84.5201 30.1812L85.1431 26.1821Z" fill="#96262C"/>
<path d="M68.5303 46.1808H82.3312L82.8917 42.1809H73.1137L74.8011 30.2082L84.5201 30.1812L85.1431 26.1821L71.3614 26.2091L68.5303 46.1808Z" fill="#721C20"/>
<path d="M8.58112 41.1111C7.47802 39.2055 7.10032 36.9659 7.51722 34.8041C7.93422 32.6423 9.11792 30.7036 10.8507 29.3443C12.5835 27.9851 14.7489 27.2968 16.9489 27.4058C19.1489 27.5148 21.2356 28.4139 22.8253 29.9378L23.3521 26.1468L22.5986 25.686C22.5295 25.6419 22.4721 25.5817 22.4314 25.5105C22.3907 25.4394 22.368 25.3594 22.3651 25.2774L22.4005 22.2084C22.398 22.1302 22.3728 22.0543 22.3279 21.9901C22.283 21.926 22.2204 21.8762 22.1477 21.847L19.2432 21.0391C19.1656 21.026 19.0858 21.0356 19.0136 21.0669C18.9413 21.0981 18.8797 21.1496 18.8361 21.2152L17.2473 23.8605C17.2014 23.9299 17.1395 23.9874 17.0667 24.028C16.994 24.0686 16.9125 24.0912 16.8293 24.0938L15.9906 24.1006C15.9078 24.0991 15.8266 24.0783 15.7534 24.0396C15.6801 24.001 15.6171 23.9457 15.5692 23.8781L13.9256 21.2548C13.8808 21.1901 13.8181 21.1398 13.7453 21.1099C13.6725 21.08 13.5925 21.0718 13.5151 21.0863L10.6343 21.938C10.5616 21.968 10.4993 22.0186 10.4551 22.0836C10.4109 22.1486 10.3868 22.2251 10.3856 22.3036L10.4792 25.3684C10.4842 25.5184 10.4337 25.6709 10.3671 25.7054L10.3072 25.7399C9.94232 25.9506 9.48292 26.2639 9.48292 26.2639C9.41232 26.3063 9.33292 26.3316 9.25092 26.3381C9.16882 26.3445 9.08642 26.3318 9.01012 26.301L6.19582 24.9767C6.12282 24.9464 6.04262 24.9376 5.96472 24.9515C5.88692 24.9654 5.81472 25.0013 5.75672 25.055L3.80972 27.2656C3.76412 27.3294 3.73862 27.4052 3.73622 27.4834C3.73382 27.5617 3.75472 27.6389 3.79622 27.7054L5.52072 30.2158C5.56302 30.2856 5.58772 30.3646 5.59292 30.446C5.59802 30.5274 5.58332 30.6089 5.55022 30.6834L5.08912 31.6589C5.05222 31.7326 4.99882 31.7968 4.93302 31.8465C4.86722 31.8961 4.79082 31.93 4.70982 31.9454L1.62412 32.3523C1.54652 32.3663 1.47442 32.4023 1.41652 32.4559C1.35862 32.5094 1.31722 32.5784 1.29712 32.6547L0.857123 35.476C0.852523 35.5541 0.871423 35.6318 0.911423 35.6991C0.951323 35.7663 1.01052 35.8201 1.08132 35.8534L3.87622 37.0278C3.94962 37.0635 4.01312 37.1165 4.06132 37.1822C4.10952 37.248 4.14092 37.3246 4.15272 37.4052L4.32132 38.6874C4.33022 38.7693 4.32002 38.8521 4.29172 38.9294C4.26332 39.0067 4.21752 39.0764 4.15782 39.1331L1.79102 41.1347C1.73322 41.1885 1.69212 41.2577 1.67252 41.3342C1.65292 41.4106 1.65572 41.4911 1.68062 41.566C1.68062 41.566 2.35992 43.3352 2.91962 44.3073V44.3132C3.01202 44.3078 3.10382 44.2954 3.19442 44.2762L6.17982 43.7539C6.26092 43.7446 6.34302 43.755 6.41922 43.7844C6.49542 43.8137 6.56332 43.8611 6.61722 43.9223L7.57552 45.0478C7.62852 45.1108 7.66602 45.1853 7.68482 45.2653C7.70372 45.3453 7.70352 45.4287 7.68432 45.5087L6.78162 48.453C6.76192 48.5294 6.76482 48.61 6.79012 48.6848C6.81542 48.7596 6.86192 48.8254 6.92402 48.8742L9.18122 50.3232C9.25082 50.3591 9.32962 50.3735 9.40742 50.3647C9.48532 50.3558 9.55882 50.3241 9.61862 50.2735L11.8573 48.2121C11.9202 48.1598 11.9949 48.1237 12.0749 48.1067C12.1549 48.0896 12.2378 48.0923 12.3166 48.1143L13.8337 48.5524C13.9119 48.5764 13.9832 48.6186 14.0419 48.6756C14.1005 48.7326 14.1447 48.8027 14.1709 48.8801L14.9986 51.8219C15.0232 51.8965 15.0692 51.9622 15.1307 52.011C15.1923 52.0598 15.2667 52.0895 15.345 52.0965L18.0059 52.0687C18.0839 52.0603 18.1578 52.0293 18.2185 51.9794C18.2791 51.9296 18.3239 51.8631 18.3472 51.7882L19.1193 48.8262C19.1442 48.7477 19.1873 48.6763 19.2452 48.6177C19.3031 48.5591 19.374 48.5151 19.4522 48.4892L20.2841 48.2281L20.7898 44.6056C18.6984 45.7175 16.2568 45.9747 13.9794 45.3228C11.702 44.671 9.76662 43.161 8.58112 41.1111Z" fill="#96262C"/>
<path d="M29.8179 20.8191H25.6112L21.2056 52.1512L27.715 58.1511L34.2235 52.1512L29.8179 20.8191ZM28.6986 41.9905H26.7195L26.1902 41.0268L27.7074 36.6907L29.2245 41.0268L28.6986 41.9905Z" fill="#96262C"/>
<path d="M24.6963 16.8489H30.7245L29.8142 19.5152H25.6075L24.6963 16.8489Z" fill="#96262C"/>
<path d="M14.1742 48.8784L15.0019 51.8202C15.0265 51.8948 15.0725 51.9605 15.134 52.0093C15.1955 52.0581 15.27 52.0878 15.3483 52.0949L18.0092 52.0671C18.0872 52.0586 18.1611 52.0276 18.2218 51.9778C18.2824 51.9279 18.3272 51.8615 18.3505 51.7865L19.1226 48.8245C19.1475 48.746 19.1906 48.6746 19.2485 48.616C19.3064 48.5574 19.3773 48.5134 19.4555 48.4875L20.2874 48.2264L20.5656 46.2256L14.1489 48.8119C14.1598 48.833 14.1683 48.8554 14.1742 48.8784Z" fill="#721C20"/>
<path d="M21.2056 52.1513L27.715 58.1512L34.2243 52.1513L32.703 41.3335L22.1277 45.5971L21.2056 52.1513Z" fill="#721C20"/>
</svg>
