<svg width="118" height="75" viewBox="0 0 118 75" fill="none" xmlns="http://www.w3.org/2000/svg">
<path d="M51.6781 26.1822L52.242 30.1813H67.3367L67.9006 26.1822H51.6781Z" fill="#96262C"/>
<path d="M52.8041 34.1812L53.3663 38.1811H66.2258L66.7324 34.1812H52.8041Z" fill="#96262C"/>
<path d="M53.9294 42.181L54.4992 46.1809L65.0619 46.1708L65.6215 42.181H53.9294Z" fill="#96262C"/>
<path d="M66.2258 38.1811L66.7324 34.1812H66.4424L56.5212 38.1811H66.2258Z" fill="#721C20"/>
<path d="M54.4992 46.1809L65.0619 46.1708L65.6215 42.181H53.9294L54.4992 46.1809Z" fill="#721C20"/>
<path d="M70.7208 26.1822H84.558L83.9958 30.1813H74.1596L73.5974 34.1812H83.4344L81.6906 46.1809H67.9006L68.4712 42.181H78.3082L78.8704 38.1811H69.0334L70.7208 26.1822Z" fill="#96262C"/>
<path d="M69.7852 32.8341L69.0334 38.1811H78.8704L78.3082 42.181H68.4712L67.9006 46.1809H81.6906L83.4344 34.1812H73.5974L74.0273 31.1231L69.7852 32.8341Z" fill="#721C20"/>
<path d="M83.9958 30.1813L84.4543 26.9202L76.3637 30.1813H83.9958Z" fill="#721C20"/>
<path d="M101.143 26.1822L87.3613 26.2092L84.5302 46.1809H98.3311L98.8916 42.181H89.1136L90.801 30.2083L100.52 30.1813L101.143 26.1822Z" fill="#96262C"/>
<path d="M84.5302 46.1809H98.3311L98.8916 42.181H89.1136L90.801 30.2083L100.52 30.1813L101.143 26.1822L87.3613 26.2092L84.5302 46.1809Z" fill="#721C20"/>
<path d="M24.5811 41.1111C23.478 39.2055 23.1003 36.9659 23.5172 34.8041C23.9342 32.6423 25.1179 30.7036 26.8507 29.3443C28.5835 27.9851 30.7489 27.2968 32.9489 27.4058C35.1489 27.5148 37.2356 28.4139 38.8253 29.9378L39.3521 26.1468L38.5986 25.686C38.5295 25.6419 38.4721 25.5817 38.4314 25.5105C38.3907 25.4394 38.368 25.3594 38.3651 25.2774L38.4005 22.2084C38.398 22.1302 38.3728 22.0543 38.3279 21.9901C38.283 21.926 38.2204 21.8762 38.1477 21.847L35.2432 21.0391C35.1656 21.026 35.0858 21.0356 35.0136 21.0669C34.9413 21.0981 34.8797 21.1496 34.8361 21.2152L33.2473 23.8605C33.2014 23.9299 33.1395 23.9874 33.0667 24.028C32.994 24.0686 32.9125 24.0912 32.8293 24.0938L31.9906 24.1006C31.9078 24.0991 31.8266 24.0783 31.7534 24.0396C31.6801 24.001 31.6171 23.9457 31.5692 23.8781L29.9256 21.2548C29.8808 21.1901 29.8181 21.1398 29.7453 21.1099C29.6725 21.08 29.5925 21.0718 29.5151 21.0863L26.6343 21.938C26.5616 21.968 26.4993 22.0186 26.4551 22.0836C26.4109 22.1486 26.3868 22.2251 26.3856 22.3036L26.4792 25.3684C26.4842 25.5184 26.4337 25.6709 26.3671 25.7054L26.3072 25.7399C25.9423 25.9506 25.4829 26.2639 25.4829 26.2639C25.4123 26.3063 25.3329 26.3316 25.2509 26.3381C25.1688 26.3445 25.0864 26.3318 25.0101 26.301L22.1958 24.9767C22.1228 24.9464 22.0426 24.9376 21.9647 24.9515C21.8869 24.9654 21.8147 25.0013 21.7567 25.055L19.8097 27.2656C19.7641 27.3294 19.7386 27.4052 19.7362 27.4834C19.7338 27.5617 19.7547 27.6389 19.7962 27.7054L21.5207 30.2158C21.563 30.2856 21.5877 30.3646 21.5929 30.446C21.598 30.5274 21.5833 30.6089 21.5502 30.6834L21.0891 31.6589C21.0522 31.7326 20.9988 31.7968 20.933 31.8465C20.8672 31.8961 20.7908 31.93 20.7098 31.9454L17.6241 32.3523C17.5465 32.3663 17.4744 32.4023 17.4165 32.4559C17.3586 32.5094 17.3172 32.5784 17.2971 32.6547L16.8571 35.476C16.8525 35.5541 16.8714 35.6318 16.9114 35.6991C16.9513 35.7663 17.0105 35.8201 17.0813 35.8534L19.8762 37.0278C19.9496 37.0635 20.0131 37.1165 20.0613 37.1822C20.1095 37.248 20.1409 37.3246 20.1527 37.4052L20.3213 38.6874C20.3302 38.7693 20.32 38.8521 20.2917 38.9294C20.2633 39.0067 20.2175 39.0764 20.1578 39.1331L17.791 41.1347C17.7332 41.1885 17.6921 41.2577 17.6725 41.3342C17.6529 41.4106 17.6557 41.4911 17.6806 41.566C17.6806 41.566 18.3599 43.3352 18.9196 44.3073V44.3132C19.012 44.3078 19.1038 44.2954 19.1944 44.2762L22.1798 43.7539C22.2609 43.7446 22.343 43.755 22.4192 43.7844C22.4954 43.8137 22.5633 43.8611 22.6172 43.9223L23.5755 45.0478C23.6285 45.1108 23.666 45.1853 23.6848 45.2653C23.7037 45.3453 23.7035 45.4287 23.6843 45.5087L22.7816 48.453C22.7619 48.5294 22.7648 48.61 22.7901 48.6848C22.8154 48.7596 22.8619 48.8254 22.924 48.8742L25.1812 50.3232C25.2508 50.3591 25.3296 50.3735 25.4074 50.3647C25.4853 50.3558 25.5588 50.3241 25.6186 50.2735L27.8573 48.2121C27.9202 48.1598 27.9949 48.1237 28.0749 48.1067C28.1549 48.0896 28.2378 48.0923 28.3166 48.1143L29.8337 48.5524C29.9119 48.5764 29.9832 48.6186 30.0419 48.6756C30.1005 48.7326 30.1447 48.8027 30.1709 48.8801L30.9986 51.8219C31.0232 51.8965 31.0692 51.9622 31.1307 52.011C31.1923 52.0598 31.2667 52.0895 31.345 52.0965L34.0059 52.0687C34.0839 52.0603 34.1578 52.0293 34.2185 51.9794C34.2791 51.9296 34.3239 51.8631 34.3472 51.7882L35.1193 48.8262C35.1442 48.7477 35.1873 48.6763 35.2452 48.6177C35.3031 48.5591 35.374 48.5151 35.4522 48.4892L36.2841 48.2281L36.7898 44.6056C34.6984 45.7175 32.2568 45.9747 29.9794 45.3228C27.702 44.671 25.7666 43.161 24.5811 41.1111Z" fill="#96262C"/>
<path d="M45.8177 20.8192H41.611L37.2054 52.1513L43.7148 58.1512L50.2233 52.1513L45.8177 20.8192ZM44.6984 41.9906H42.7193L42.19 41.0269L43.7072 36.6908L45.2243 41.0269L44.6984 41.9906Z" fill="#96262C"/>
<path d="M40.6965 16.8488H46.7247L45.8144 19.5151H41.6077L40.6965 16.8488Z" fill="#96262C"/>
<path d="M30.1743 48.8784L31.002 51.8202C31.0266 51.8948 31.0726 51.9605 31.1341 52.0093C31.1956 52.0581 31.2701 52.0878 31.3484 52.0949L34.0093 52.0671C34.0873 52.0586 34.1612 52.0276 34.2219 51.9778C34.2825 51.9279 34.3273 51.8615 34.3506 51.7865L35.1227 48.8245C35.1476 48.746 35.1907 48.6746 35.2486 48.616C35.3065 48.5574 35.3774 48.5134 35.4556 48.4875L36.2875 48.2264L36.5657 46.2256L30.149 48.8119C30.1599 48.833 30.1684 48.8554 30.1743 48.8784Z" fill="#721C20"/>
<path d="M37.2054 52.1513L43.7148 58.1512L50.2241 52.1513L48.7028 41.3335L38.1275 45.5971L37.2054 52.1513Z" fill="#721C20"/>
</svg>
